<?xml version="1.0" encoding="UTF-8"?>
<svg width="45px" height="45px" viewBox="0 0 45 45" version="1.1" xmlns="http://www.w3.org/2000/svg" xmlns:xlink="http://www.w3.org/1999/xlink">
    <title>Logo/Full/Light</title>
    <g id="Website-Desktop-" stroke="none" stroke-width="1" fill="none" fill-rule="evenodd">
        <g id="Main-Page" transform="translate(-130.000000, -62.000000)" fill="#12141E">
            <g id="Logo/Full/Dark" transform="translate(130.000000, 62.000000)">
                <g id="Logo">
                    <path d="M30.6977778,23.5061111 L23.4586111,23.5061111 L23.4586111,16.2669444 L16.2191667,16.2669444 L16.2191667,9.0275 L30.6977778,9.0275 L30.6977778,23.5061111 Z M8.98,30.7452778 L16.2191667,30.7452778 L16.2191667,23.5061111 L8.98,23.5061111 L8.98,30.7452778 Z M0,4.38416667 L0,35.3891667 C0,37.7838889 1.94138889,39.7255556 4.33638889,39.7255556 L35.3413889,39.7255556 C37.7363889,39.7255556 39.6777778,37.7838889 39.6777778,35.3891667 L39.6777778,4.38416667 C39.6777778,1.98916667 37.7363889,0.0477777778 35.3413889,0.0477777778 L4.33638889,0.0477777778 C1.94138889,0.0477777778 0,1.98916667 0,4.38416667 L0,4.38416667 Z" id="Fill-12"></path>
                </g>
            </g>
        </g>
    </g>
</svg>